<svg width="58" height="17" viewBox="0 0 58 17" fill="none" xmlns="http://www.w3.org/2000/svg">
<path d="M11.293 5.07129C11.293 4.44043 11.709 4.125 12.541 4.125C12.8086 4.125 13.0762 4.14453 13.3438 4.18359V3.89355C13.3438 3.54004 13.0674 3.36328 12.5146 3.36328C12.1982 3.36328 11.874 3.41211 11.542 3.50977V3.07031C11.874 2.97266 12.1982 2.92383 12.5146 2.92383C13.4287 2.92383 13.8857 3.24219 13.8857 3.87891V6H13.5811L13.3936 5.69531C13.0869 5.89844 12.7529 6 12.3916 6C11.6592 6 11.293 5.69043 11.293 5.07129ZM12.541 4.56445C12.0703 4.56445 11.835 4.73047 11.835 5.0625C11.835 5.39453 12.0205 5.56055 12.3916 5.56055C12.7666 5.56055 13.084 5.46094 13.3438 5.26172V4.62305C13.0762 4.58398 12.8086 4.56445 12.541 4.56445ZM17.8876 6V2.92383H18.2538L18.3505 3.31641C18.6649 3.05469 19.0106 2.92383 19.3876 2.92383C20.1552 2.92383 20.5389 3.30566 20.5389 4.06934V6H19.997V4.06055C19.997 3.60352 19.7694 3.375 19.3143 3.375C19.0038 3.375 18.7089 3.50488 18.4296 3.76465V6H17.8876ZM24.5408 2.42578H24.8806L24.9978 2.92383H25.8298V3.36328H25.0828V5.12988C25.0828 5.41699 25.2068 5.56055 25.4548 5.56055H25.8298V6H25.3142C24.7986 6 24.5408 5.72363 24.5408 5.1709V2.42578ZM30.0368 4.4502C30.0368 5.19043 30.3444 5.56055 30.9596 5.56055C31.5748 5.56055 31.8825 5.19043 31.8825 4.4502C31.8825 3.72559 31.5748 3.36328 30.9596 3.36328C30.3444 3.36328 30.0368 3.72559 30.0368 4.4502ZM29.4948 4.46191C29.4948 3.43652 29.983 2.92383 30.9596 2.92383C31.9362 2.92383 32.4245 3.43652 32.4245 4.46191C32.4245 5.48535 31.9362 5.99707 30.9596 5.99707C29.987 5.99707 29.4987 5.48535 29.4948 4.46191ZM36.2769 6V2.92383H36.6431L36.7398 3.31641C37.0542 3.05469 37.3999 2.92383 37.7769 2.92383C38.5445 2.92383 38.9282 3.30566 38.9282 4.06934V6H38.3862V4.06055C38.3862 3.60352 38.1587 3.375 37.7036 3.375C37.3931 3.375 37.0982 3.50488 36.8189 3.76465V6H36.2769Z" fill="#808DAD" fill-opacity="0.5"/>
<path d="M4.884 8.456C5.004 8.216 5.064 7.984 5.064 7.76C5.064 7.536 5.052 7.364 5.028 7.244C5.004 7.116 4.964 7.004 4.908 6.908C4.788 6.7 4.608 6.596 4.368 6.596C4.072 6.596 3.804 6.704 3.564 6.92C3.308 7.144 3.18 7.432 3.18 7.784C3.18 8.008 3.256 8.208 3.408 8.384C3.568 8.552 3.768 8.716 4.008 8.876C4.248 9.036 4.504 9.196 4.776 9.356C5.048 9.516 5.304 9.692 5.544 9.884C6.096 10.324 6.372 10.84 6.372 11.432C6.372 11.832 6.264 12.204 6.048 12.548C5.84 12.884 5.56 13.176 5.208 13.424C4.44 13.968 3.548 14.24 2.532 14.24C1.708 14.24 1.084 14.108 0.66 13.844C0.236 13.572 0.024 13.232 0.024 12.824C0.024 12.096 0.308 11.64 0.876 11.456C1.036 11.4 1.236 11.372 1.476 11.372C1.724 11.372 1.988 11.424 2.268 11.528C2.14 11.856 2.076 12.168 2.076 12.464C2.076 13.104 2.304 13.424 2.76 13.424C3.056 13.424 3.324 13.316 3.564 13.1C3.812 12.884 3.936 12.656 3.936 12.416C3.936 12.168 3.856 11.956 3.696 11.78C3.544 11.604 3.352 11.448 3.12 11.312C2.888 11.168 2.636 11.028 2.364 10.892C2.1 10.756 1.852 10.592 1.62 10.4C1.076 9.96 0.804 9.388 0.804 8.684C0.804 8.228 0.916 7.824 1.14 7.472C1.364 7.112 1.656 6.812 2.016 6.572C2.736 6.084 3.536 5.84 4.416 5.84C5.304 5.84 5.96 5.972 6.384 6.236C6.816 6.5 7.032 6.856 7.032 7.304C7.032 7.696 6.88 8.016 6.576 8.264C6.312 8.472 6.02 8.576 5.7 8.576C5.38 8.576 5.108 8.536 4.884 8.456Z" fill="#EB4A4A"/>
<path d="M7.79813 13.64C7.61413 13.432 7.47813 13.164 7.39013 12.836C7.31013 12.508 7.27013 12.076 7.27013 11.54C7.27013 11.004 7.36213 10.492 7.54613 10.004C7.73013 9.516 7.99013 9.096 8.32613 8.744C9.01413 8.008 9.92613 7.64 11.0621 7.64C11.4701 7.64 11.8221 7.708 12.1181 7.844L14.1701 7.64L13.2821 12.32C13.2581 12.416 13.2461 12.552 13.2461 12.728C13.2461 12.904 13.2981 13.048 13.4021 13.16C13.5141 13.272 13.6501 13.336 13.8101 13.352C13.7301 13.624 13.5421 13.84 13.2461 14C12.9581 14.16 12.6501 14.24 12.3221 14.24C11.9941 14.24 11.7181 14.176 11.4941 14.048C11.2781 13.928 11.1381 13.764 11.0741 13.556C10.9461 13.756 10.7461 13.92 10.4741 14.048C10.2021 14.176 9.88213 14.24 9.51413 14.24C9.15413 14.24 8.82613 14.192 8.53013 14.096C8.23413 14 7.99013 13.848 7.79813 13.64ZM10.3301 8.768C10.2421 8.912 10.1581 9.108 10.0781 9.356C9.99813 9.596 9.89013 10.044 9.75413 10.7C9.62613 11.348 9.56213 11.904 9.56213 12.368C9.56213 12.832 9.59813 13.132 9.67013 13.268C9.74213 13.404 9.84213 13.472 9.97013 13.472C10.2261 13.472 10.4461 13.352 10.6301 13.112C10.8221 12.864 10.9541 12.524 11.0261 12.092L11.6621 8.576C11.4941 8.432 11.3101 8.36 11.1101 8.36C10.9181 8.36 10.7621 8.392 10.6421 8.456C10.5301 8.52 10.4261 8.624 10.3301 8.768ZM23.4573 14.24C22.4893 14.24 22.0053 13.864 22.0053 13.112C22.0053 12.784 22.0733 12.304 22.2093 11.672C22.3533 11.032 22.4493 10.584 22.4973 10.328C22.6093 9.744 22.6653 9.36 22.6653 9.176C22.6653 8.768 22.5133 8.564 22.2093 8.564C22.0093 8.564 21.8133 8.704 21.6213 8.984C21.4293 9.256 21.2893 9.668 21.2013 10.22L20.4573 14L18.1173 14.24L18.7653 10.976C18.8373 10.616 18.9053 10.232 18.9693 9.824C19.0333 9.416 19.0653 9.18 19.0653 9.116C19.0653 8.748 18.9293 8.564 18.6573 8.564C18.4733 8.564 18.2813 8.7 18.0813 8.972C17.8813 9.244 17.7253 9.66 17.6133 10.22L16.8813 14L14.5173 14.24L15.7773 7.88L17.7333 7.64L17.5293 8.852C17.7373 8.42 18.0333 8.112 18.4173 7.928C18.8013 7.736 19.2933 7.64 19.8933 7.64C20.2373 7.64 20.5213 7.724 20.7453 7.892C20.9693 8.06 21.1173 8.28 21.1893 8.552C21.3253 8.272 21.5653 8.052 21.9093 7.892C22.2613 7.724 22.6493 7.64 23.0733 7.64C23.5053 7.64 23.8253 7.688 24.0333 7.784C24.2493 7.872 24.4213 7.992 24.5493 8.144C24.7653 8.424 24.8733 8.82 24.8733 9.332C24.8733 9.836 24.7653 10.612 24.5493 11.66C24.4373 12.172 24.3813 12.524 24.3813 12.716C24.3813 12.9 24.4333 13.048 24.5373 13.16C24.6493 13.272 24.7853 13.336 24.9453 13.352C24.8653 13.624 24.6853 13.84 24.4053 14C24.1333 14.16 23.8173 14.24 23.4573 14.24ZM28.4841 14.24C26.7241 14.24 25.8441 13.412 25.8441 11.756C25.8441 10.58 26.1681 9.612 26.8161 8.852C27.5041 8.044 28.4441 7.64 29.6361 7.64C30.5001 7.64 31.1521 7.84 31.5921 8.24C32.0321 8.64 32.2521 9.26 32.2521 10.1C32.2521 11.38 31.9081 12.392 31.2201 13.136C30.5481 13.872 29.6361 14.24 28.4841 14.24ZM28.7961 9.02C28.7001 9.236 28.6121 9.508 28.5321 9.836C28.4601 10.156 28.3761 10.572 28.2801 11.084C28.1841 11.596 28.1361 12.168 28.1361 12.8C28.1361 13.008 28.1681 13.18 28.2321 13.316C28.3041 13.452 28.4321 13.52 28.6161 13.52C28.8001 13.52 28.9481 13.476 29.0601 13.388C29.1801 13.3 29.2841 13.152 29.3721 12.944C29.5321 12.576 29.6761 12.052 29.8041 11.372C29.9321 10.684 30.0001 10.192 30.0081 9.896C30.0241 9.6 30.0321 9.344 30.0321 9.128C30.0321 8.904 30.0001 8.72 29.9361 8.576C29.8721 8.432 29.7481 8.36 29.5641 8.36C29.3881 8.36 29.2401 8.416 29.1201 8.528C29.0001 8.64 28.8921 8.804 28.7961 9.02ZM37.2319 8.084C37.4959 7.788 37.8559 7.64 38.3119 7.64C38.5919 7.64 38.8399 7.716 39.0559 7.868C39.2719 8.02 39.3799 8.24 39.3799 8.528C39.3799 8.808 39.3359 9.1 39.2479 9.404C39.1599 9.708 39.0479 10.016 38.9119 10.328C38.6399 10.936 38.3159 11.492 37.9399 11.996C37.4119 12.724 36.8919 13.28 36.3799 13.664C35.8759 14.048 35.3479 14.24 34.7959 14.24C34.3479 14.24 33.9879 14.188 33.7159 14.084C33.6679 12.404 33.6119 11.264 33.5479 10.664C33.4919 10.064 33.4399 9.6 33.3919 9.272C33.3119 8.632 33.1519 8.236 32.9119 8.084C33.0959 7.924 33.2759 7.812 33.4519 7.748C33.6359 7.676 33.9119 7.64 34.2799 7.64C34.6559 7.64 34.9759 7.788 35.2399 8.084C35.5039 8.372 35.6599 8.776 35.7079 9.296C35.7639 9.808 35.7919 10.376 35.7919 11C35.7919 11.624 35.7679 12.312 35.7199 13.064C35.9679 12.888 36.2239 12.532 36.4879 11.996C36.8479 11.252 37.0919 10.432 37.2199 9.536C37.2599 9.264 37.2799 8.984 37.2799 8.696C37.2799 8.408 37.2639 8.204 37.2319 8.084ZM42.5879 13.34C42.3399 13.94 41.8199 14.24 41.0279 14.24C40.6199 14.24 40.2879 14.1 40.0319 13.82C39.8159 13.572 39.7079 13.324 39.7079 13.076C39.7079 12.428 39.8559 11.472 40.1519 10.208L40.5959 7.88L43.0319 7.64L42.2999 11.432C42.1639 12.024 42.0959 12.424 42.0959 12.632C42.0959 13.088 42.2599 13.324 42.5879 13.34ZM40.8119 6.212C40.8119 5.9 40.9399 5.66 41.1959 5.492C41.4599 5.324 41.7799 5.24 42.1559 5.24C42.5319 5.24 42.8319 5.324 43.0559 5.492C43.2879 5.66 43.4039 5.9 43.4039 6.212C43.4039 6.524 43.2759 6.76 43.0199 6.92C42.7719 7.08 42.4599 7.16 42.0839 7.16C41.7079 7.16 41.3999 7.08 41.1599 6.92C40.9279 6.76 40.8119 6.524 40.8119 6.212ZM49.5023 9.008C49.5023 9.344 49.3623 9.616 49.0823 9.824C48.8023 10.032 48.4343 10.136 47.9783 10.136C47.7863 10.136 47.6343 10.108 47.5223 10.052C47.6103 9.844 47.6663 9.612 47.6903 9.356C47.7223 9.092 47.7383 8.924 47.7383 8.852C47.7383 8.516 47.6223 8.348 47.3903 8.348C47.2303 8.348 47.0583 8.448 46.8743 8.648C46.6983 8.848 46.5343 9.104 46.3823 9.416C46.0463 10.136 45.8783 10.86 45.8783 11.588C45.8783 11.988 45.9543 12.28 46.1063 12.464C46.2583 12.64 46.5023 12.728 46.8383 12.728C47.3023 12.728 47.7183 12.536 48.0863 12.152C48.1903 12.032 48.2703 11.904 48.3263 11.768C48.6303 11.928 48.7823 12.228 48.7823 12.668C48.7823 13.116 48.5343 13.488 48.0383 13.784C47.5263 14.088 46.8623 14.24 46.0463 14.24C44.4223 14.24 43.6103 13.38 43.6103 11.66C43.6103 10.404 43.9663 9.416 44.6783 8.696C45.3663 7.992 46.3423 7.64 47.6063 7.64C48.8703 7.64 49.5023 8.096 49.5023 9.008ZM55.8572 12.668C55.8572 13.02 56.0372 13.248 56.3972 13.352C56.3092 13.648 56.0932 13.876 55.7492 14.036C55.4612 14.172 55.1572 14.24 54.8372 14.24C54.5252 14.24 54.2852 14.196 54.1172 14.108C53.9572 14.028 53.8332 13.92 53.7452 13.784C53.6012 13.576 53.5292 13.276 53.5292 12.884C53.5292 12.652 53.5932 12.216 53.7212 11.576L53.8892 10.664C54.0252 9.968 54.0932 9.492 54.0932 9.236C54.0932 8.788 53.9692 8.564 53.7212 8.564C53.4092 8.564 53.1532 8.792 52.9532 9.248C52.8732 9.424 52.8052 9.644 52.7492 9.908L51.9332 14L49.5212 14.24L51.2132 5.6L53.6252 5.36L53.5292 5.84C53.3052 7.072 53.0972 7.896 52.9052 8.312C53.3532 7.864 53.9892 7.64 54.8132 7.64C55.6852 7.64 56.2012 7.928 56.3612 8.504C56.4172 8.688 56.4452 8.86 56.4452 9.02C56.4452 9.18 56.4372 9.324 56.4212 9.452C56.4132 9.572 56.3892 9.744 56.3492 9.968L56.1932 10.832L55.9172 12.188C55.8772 12.372 55.8572 12.532 55.8572 12.668Z" fill="white"/>
</svg>
